<?xml version="1.0" encoding="UTF-8" standalone="no"?>
<!-- Created with Inkscape (http://www.inkscape.org/) -->

<svg
   version="1.1"
   id="svg1"
   width="865.59406"
   height="240.27525"
   viewBox="0 0 865.59406 240.27525"
   sodipodi:docname="solli_logo_apri.svg"
   inkscape:version="1.4.2 (f4327f4, 2025-05-13)"
   xmlns:inkscape="http://www.inkscape.org/namespaces/inkscape"
   xmlns:sodipodi="http://sodipodi.sourceforge.net/DTD/sodipodi-0.dtd"
   xmlns="http://www.w3.org/2000/svg"
   xmlns:svg="http://www.w3.org/2000/svg">
  <sodipodi:namedview
     id="namedview1"
     pagecolor="#ffffff"
     bordercolor="#000000"
     borderopacity="0.25"
     inkscape:showpageshadow="2"
     inkscape:pageopacity="0.0"
     inkscape:pagecheckerboard="0"
     inkscape:deskcolor="#d1d1d1"
     inkscape:zoom="4"
     inkscape:cx="298.125"
     inkscape:cy="143.125"
     inkscape:window-width="1920"
     inkscape:window-height="1017"
     inkscape:window-x="-8"
     inkscape:window-y="-8"
     inkscape:window-maximized="1"
     inkscape:current-layer="g1" />
  <defs
     id="defs1" />
  <g
     id="g1"
     transform="translate(-50.722305,-358.72474)">
    <g
       id="g3">
      <path
         style="display:inline;fill:#95cbac"
         d="m 187.17835,596.75 c -4.0545,-2.20555 -19.44449,-16.46955 -79.66749,-73.8387 C 64.388759,481.83266 61.044232,477.79159 54.779205,459.19753 l -2.40019,-8.78592 -1.09352,-10.45378 -0.121248,-10.54216 0.760521,-6.90506 c 3.530585,-32.05552 30.4644,-56.56352 62.505462,-62.15602 l 9.13227,-1.20806 9.4375,0.16382 9.5,0.53882 8.78184,2.58026 c 11.4237,3.35649 22.48133,8.97782 32.47877,16.51111 9.64599,7.26848 7.72453,7.20657 16.36911,0.52741 13.91158,-10.74865 28.63056,-17.15372 44.8795,-19.52963 l 8.29975,-1.21358 8.23255,0.58098 c 32.77026,2.31263 59.46969,23.9264 69.41667,56.19428 l 2.15783,7 0.57953,10.01818 0.57953,10.01818 -1.69485,8.36447 c -2.31401,11.42009 -5.92864,19.9951 -12.68046,30.08191 l -5.70121,8.51726 -15.84928,15.47655 c -8.7171,8.5121 -33.06612,32.3621 -54.10892,53 C 204.26503,597.18267 202.10243,599 195.42289,599 h -4.10832 z m 15.46854,-1.11843 C 203.82769,595.00921 218.72501,580.775 235.75207,564 252.77912,547.225 276.51391,524.05884 288.49603,512.51965 323.75593,478.56318 332,464.10286 332,436.21256 v -9.89263 l -1.99187,-7.78812 C 324.33201,396.33839 309.97787,378.59052 289.5,368.44642 l -9,-4.45832 -8,-1.61917 -8,-1.61917 -12,0.53999 -12,0.53999 -7,2.08341 c -10.46488,3.11467 -21.92903,9.01275 -31.96689,16.44636 -10.57981,7.83494 -8.99817,7.52601 -14.64424,2.86037 -12.12699,-10.02116 -27.93311,-17.84861 -42.14242,-20.8696 l -7.24645,-1.54065 -12.53125,0.0776 -12.46875,0.89007 -7,2.22616 c -30.099355,9.57229 -49.775388,34.3011 -52.967721,66.56977 l -0.478778,7.02899 1.508361,8.46626 c 4.125308,23.15489 10.46437,33.60596 42.405345,63.75727 9.093033,8.58355 32.580093,30.85717 52.193463,49.49694 43.55433,41.39231 44.12287,41.77118 54.48622,36.30892 z M 187.9939,547.72985 c -3.02836,-2.87642 -22.37836,-21.12764 -43,-40.55828 -20.62165,-19.43063 -40.07897,-38.29665 -43.23851,-41.92449 L 96.320146,458.47423 93.005394,450.85776 90.3125,442.87702 90,434.66662 v -8.39791 l 3.534957,-7.06596 3.534957,-7.06596 5.159026,-5.57232 5.77774,-4.42327 5.74666,-2.29378 5.74666,-2.29379 9.5,0.0716 9.5,0.0716 5.73554,2.21798 c 8.631,3.33767 16.91449,9.33291 29.30745,21.21146 l 11.18874,10.72431 4.13413,1.11321 4.13414,1.11321 4.18659,-1.12733 4.05401,-1.4367 12.19599,-11.39181 C 225.95658,408.42671 233.57997,402.60618 242.5,399.42599 l 5,-1.78261 9,-0.5042 9.0625,0.6208 6.56088,2.88323 c 7.90636,3.47451 13.55377,8.62023 17.83331,15.28931 l 3.09744,4.82694 1.39221,6.65406 1.39221,6.65405 -0.84007,5.71623 c -1.02593,6.98099 -2.96583,12.49882 -7.16216,20.37193 l -3.19645,5.99717 -31.05166,30.17356 C 236.5098,512.9219 216.43342,532.4625 208.97404,539.75 c -7.45938,7.2875 -13.99261,13.24093 -14.51828,13.22985 -0.52567,-0.0111 -3.43351,-2.37359 -6.46186,-5.25 z M 238.98211,508.5 281.85246,466.32813 286.01691,460 c 2.28205,-3.4677 4.82943,-9.81599 6.04322,-13.86886 l 1.83188,-7.36887 -0.23002,-6.47904 c -0.45358,-12.7762 -9.69771,-24.66334 -21.40641,-30.02376 l -5.71599,-2.36687 -7.68384,-0.69481 -7.5863,0.0536 -6.97502,1.59054 c -9.88296,2.25365 -18.09806,8.73241 -30.79443,21.2156 -17.257,16.96725 -22.85742,17.50856 -37.39673,3.61459 -14.72513,-14.07154 -19.30556,-17.6755 -27.83814,-21.90356 l -8.7302,-3.79225 -10.60557,-0.82008 -8.04073,0.0505 -4.8039,1.43644 -4.84706,1.97418 -6.02702,3.5593 -4.17282,4.39814 c -5.434372,5.72782 -8.862304,13.45249 -9.653942,21.02647 l -0.307252,5.74196 1.319864,6.55924 c 0.713644,3.54655 3.010691,8.95775 4.695314,12.11842 l 3.504886,5.26055 12.23068,12.97036 c 6.71238,7.11832 25.26939,24.35612 40.66545,38.86622 15.39605,14.51009 30.69605,28.96816 34,32.12903 3.30394,3.16087 6.52099,5.63587 7.14899,5.5 0.628,-0.13587 20.58113,-19.14704 44.34029,-42.24704 z M 404.5,597.8915 c -13.95254,-2.0106 -36.36712,-10.01568 -41.91601,-14.96976 L 359.5,580.16834 359.23249,561.33417 358.96498,542.5 l 1.29263,-2.49114 c 1.9472,-3.75263 4.23286,-3.57524 11.04468,0.85717 9.72145,6.3257 24.74113,13.00351 35.42036,15.74805 l 9.77735,2.51275 12.57324,-0.31342 12.57324,-0.31341 5.88381,-3.01039 5.8838,-3.01038 3.21608,-4.21657 3.21608,-4.21656 1.22305,-5.46515 1.22304,-5.46515 -1.33906,-4.78268 -1.33907,-4.78267 -4.22886,-4.10998 c -5.75481,-5.59304 -15.83496,-10.29522 -38.45362,-17.93781 -10.50869,-3.55077 -22.64373,-8.34055 -26.96677,-10.64395 l -7.86006,-4.18802 -5.63807,-5.58535 C 369.77286,474.45397 365.01139,466.27215 361.86821,456 l -2.29493,-7.5 v -12 -12 l 2.17882,-7.04153 c 13.49926,-43.62701 75.1386,-62.56811 124.97582,-38.40371 l 10.22793,4.95917 1.52207,2.94338 1.52208,2.94337 v 17.82715 17.82716 l -1.5567,2.2225 c -2.18833,3.12427 -3.15879,2.90186 -14.15891,-3.245 -25.99028,-14.52334 -51.6608,-17.53441 -67.97555,-7.97333 l -4.46403,2.6161 -2.84768,4.49031 c -1.56622,2.46968 -3.14471,6.24848 -3.50776,8.39735 l -0.66009,3.90702 1.64022,4.93824 1.64022,4.93824 4.51553,4.16227 c 5.52883,5.09629 11.24231,7.80483 36.87475,17.48086 l 20,7.54984 7.72257,4.66268 c 14.33668,8.65611 22.98935,19.01166 27.3396,32.72018 l 2.51404,7.92225 0.56249,9.07775 0.56249,9.07775 -1.58164,7.5 c -0.86989,4.125 -3.45475,11.29887 -5.74413,15.94193 l -4.16251,8.44193 -7.14003,7.05807 c -11.37173,11.2412 -22.91103,16.86295 -41.13712,20.04131 L 439.73802,599 425.11901,598.87806 C 417.07855,598.81099 407.8,598.36704 404.5,597.8915 Z m 46.29216,-2.44996 c 26.29642,-5.31693 44.11465,-19.54961 51.90988,-41.46411 l 2.6598,-7.47743 0.43064,-10.19976 0.43064,-10.19975 -1.68057,-7.55383 c -0.92431,-4.1546 -3.2412,-10.67334 -5.14864,-14.48609 l -3.46807,-6.93226 -7.48342,-6.98869 -7.48342,-6.9887 -10.2295,-5.04056 C 465.10327,475.33804 453.525,470.52662 445,467.4183 418.63371,457.80484 410.55809,452.93459 405.92496,443.8529 L 404,440.07968 v -5.07196 c 0,-9.67504 5.14891,-16.97421 15.22308,-21.58044 l 6.27692,-2.87001 12.13712,-0.37835 12.13713,-0.37836 8.04844,2.03528 c 9.4993,2.40217 20.18253,6.93669 29.10555,12.35392 3.53553,2.14644 7.33393,3.76934 8.44089,3.60643 l 2.01266,-0.29619 0.90646,-3.5 c 0.49855,-1.925 0.71937,-10.25 0.49069,-18.5 l -0.41577,-15 -1.25542,-2.55977 C 494.92142,383.48239 480.73728,376.73982 465.5,372.91519 l -8,-2.00804 -13.5,-0.57676 -13.5,-0.57676 -9,1.70042 c -36.18927,6.83744 -60.43287,32.94517 -60.48522,65.13599 l -0.0148,9.09003 2.01579,7.90997 c 1.10869,4.35048 3.23765,10.38496 4.73102,13.40996 l 2.71524,5.5 7.01897,7.0304 7.01898,7.0304 6,3.12395 c 3.3,1.71818 15.45,6.35473 27,10.30345 29.41414,10.05612 39.68943,15.81524 43.60719,24.44106 l 1.84889,4.07074 0.0122,5.5 0.0122,5.5 -2.34733,5.04087 c -2.75254,5.91104 -7.03825,9.81591 -14.57562,13.2804 l -5.44249,2.50159 -9.55751,0.4532 -9.55751,0.45319 -9,-1.6886 c -11.59563,-2.1756 -26.57559,-8.0644 -38.22574,-15.02698 C 360.35959,536.1977 361,535.42785 361,560.471 v 18.30743 l 1.75,2.07847 c 3.66907,4.35775 20.03221,10.7906 36.02591,14.16289 l 8.72409,1.83949 17.79216,0.0704 L 443.08432,597 Z M 589.5,597.5811 c -9.29676,-2.12277 -17.14676,-5.15801 -25.38322,-9.81457 L 556.5702,583.5 548.0351,574.99941 C 536.61838,563.62885 530.85817,553.5415 526.26708,536.879 l -1.75763,-6.379 0.0349,-14.5 0.0349,-14.5 1.79938,-7 c 7.11879,-27.69378 27.48667,-49.23405 55.26369,-58.44474 l 9.17617,-3.04277 10.04796,-1.14256 10.04795,-1.14257 9.2751,1.18948 c 5.1013,0.65422 13.49189,2.58775 18.64574,4.29673 l 9.37064,3.10725 8.64709,5.4038 c 20.04529,12.52683 33.04946,31.23702 37.70464,54.24879 l 1.71413,8.47341 -0.57283,12.02659 -0.57284,12.02659 -2.11835,7.5 C 685.2609,566.42733 666.76019,585.65203 639,595.12114 l -9.5,3.24049 -17,0.29474 -17,0.29474 z m 44,-2.52084 c 37.15995,-9.51562 60.21396,-39.70445 60.60147,-79.35657 L 694.21095,504.5 692.16061,495.90317 C 684.63934,464.36749 661.49887,442.37749 628,434.9324 l -8.5,-1.88912 -9,-0.008 -9,-0.009 -9,1.88137 c -11.48969,2.4018 -18.03264,4.9089 -28,10.72892 l -8,4.67126 -7.5845,7.59609 -7.5845,7.59609 -4.34676,7.48484 C 528.45157,487.67752 524.91798,504.107 526.11963,523.5 l 0.61963,10 3.09595,9.20416 c 9.80653,29.15449 31.80558,47.82137 63.50636,53.88713 l 7.15843,1.36972 12.5,-0.42608 12.5,-0.42609 z m -33,-34.47129 C 558.96434,550.2803 555.56679,488.77193 595.65633,472.90025 L 601.5,470.5867 h 9 9 l 5.75209,2.27928 c 11.81314,4.68099 21.69768,15.75634 25.73864,28.83942 L 653,508.21067 v 7.18457 c 0,30.20266 -25.26638,51.95279 -52.5,45.19373 z m 26.69669,-4.42573 c 3.68319,-1.76799 8.81212,-5.32995 11.39764,-7.91547 l 4.70095,-4.70095 3.27066,-6.82473 c 1.79887,-3.7536 3.79809,-9.95163 4.44272,-13.77341 L 652.1807,516 l -1.17204,-6.94868 c -0.64463,-3.82178 -2.64385,-10.01981 -4.44272,-13.77341 l -3.27066,-6.82473 -4.89477,-4.89478 -4.89478,-4.89478 -6.21791,-2.90971 c -11.26501,-5.27153 -22.46805,-5.19787 -34.05415,0.22393 l -6.28133,2.93938 -5.49822,5.49822 -5.49821,5.49822 -2.90403,6.14057 c -1.59722,3.37731 -3.42869,9.25107 -4.06993,13.0528 l -1.1659,6.91223 1.5346,7.52517 c 3.62634,17.78234 13.35985,29.60314 28.48572,34.59431 l 5.66363,1.86886 8.5,-0.31492 8.5,-0.31491 z m 87.14764,38.18494 -0.84433,-2.55781 -0.27878,-111.64518 c -0.15333,-61.40486 0.8248,-111.75638 1.04135,-113.01148 l 0.68862,-1.92722 1.59616,-0.88295 18.31671,-0.32354 20.61273,0.25892 2.57493,1.18216 0.99094,2.35492 0.008,57.80631 c 0.005,31.84373 -0.005,82.31019 -0.0213,112.14769 L 759,592 758.01647,594.19887 755,596 H 736.15499 717.30998 Z M 756.79685,592.39621 758,589.55499 V 479.46862 369.38226 l -0.96062,-2.37947 -1.53938,-0.91731 -20,-0.20381 -19.10174,0.34881 -1.15257,112.2508 -0.2543,112.80341 0.78425,1.8438 1.46925,0.87151 h 18.82085 18.82085 z m 36.51708,2.46174 L 791.875,591.77841 792,480.18031 V 369.26972 l 0.9956,-3.49644 L 796.14516,364 h 18.38847 l 18.32384,0.17232 2.98669,1.30544 1.15584,2.89936 v 111.73886 111.73886 l -1.26484,2.6471 -3.16519,1.38757 L 814.31969,596 h -17.5981 z M 834.26404,593.08726 835,591.6 V 479.92244 368.24489 l -0.95543,-1.3301 -1.73084,-0.89931 -17.48657,-0.25774 -17.48656,-0.25774 -1.95031,1.39398 -1.32567,2.12633 L 794,479.92244 V 591.6 l 1.2,1.2 1.2,1.2 h 18.1 18.1 z m 34.22177,1.85663 L 867,591.85484 V 516.0382 440.22157 l 0.9545,-2.79679 2.5455,-1.38258 18.5,-0.11164 c 20.79288,-0.12548 23.2011,-0.43863 23.69513,4.59537 L 912.987,443.5 912.7435,517.83847 912.5,592.17694 911.04547,594.86972 907.77843,596 H 890.02407 872.26972 Z M 909.8,592.8 910.78125,591.50625 911,516.12874 V 440.65748 L 910.15751,438.54749 907.69002,437 H 889.54501 871.4 l -1.2,1.2 -1.2,1.5867 V 515.5 591.6 l 0.75806,1.53146 L 871.4,594 H 890 l 18.31875,-0.3125 z M 880.33245,413.20975 c -8.42809,-3.87527 -11.38663,-6.06497 -14.83564,-12.3395 l -1.91804,-5.45641 -0.60311,-5.65537 0.60311,-8.06779 1.82389,-3.46007 c 5.09701,-9.66942 12.47529,-13.55024 24.76701,-14.22084 l 5.89954,0.44079 3.80107,1.29787 c 7.64079,2.60893 16.30287,13.33159 16.39481,23.22545 l -0.22871,5.78482 -1.718,4.24153 c -3.57353,8.82262 -12.64172,14.61382 -23.07453,15.54414 l -6.29221,-0.097 z m 20.9176,-3.5097 c 4.97765,-2.86936 10.03086,-7.25028 12.26557,-13.10178 l 1.20131,-4.54737 -0.54019,-5.24784 c -0.92822,-9.01745 -5.36566,-14.77286 -13.67914,-19.04516 l -3.79618,-1.95087 -7.66374,-0.42894 -8.43917,1.72502 -5.15205,2.42333 -4.4628,3.54338 -3.45722,4.37774 -2.33717,4.89469 -0.68927,7.1527 1.0339,7.06654 2.00114,4.99982 4.06895,4.56903 5.43105,3.70879 6.46496,3.36415 7,-0.44355 6.63446,-0.68725 z"
         id="path5"
         sodipodi:nodetypes="ssscccsscccsssscsscccsscssscssssscsscccccsssscccsscssssssscccccccccccccssccccccscccsscccsscsssssssscsscccssssccccccsscsscssssssssccssscccccccccccssscsscccsscccccssscsscccsscsscccsscsscsssssccsscccssscsscccssscsscsscccsscsscccssscccsscccssscsscccsssssscccsscccsscsscccsscccsssssscccsscccsscsscccssscccsscsssccsscsscccsscccsscsscccscccscccccccccccccccccccccccccccccccccccccccccccccccccccccccccccccccccccccssccccccccccscccccccccccccccssccsccsscssccsscsscccccccccccccccss" />
      <path
         style="display:inline;fill:#78be95"
         d="m 192.84214,597.6858 c -4.54846,-1.06826 -9.35751,-4.79266 -44.68147,-38.36315 C 128.5473,540.68288 105.06024,518.40926 95.967207,509.82571 64.026232,479.6744 57.384768,469.81989 53.385086,446.64296 l -1.331585,-8.99659 0.478778,-7.07318 C 54.722172,398.22103 75.400645,373.57571 105.5,364.00342 l 7,-2.22616 12.5,-0.98382 12.5,0.0162 7.24645,1.54065 c 14.20931,3.02099 30.01543,10.84844 42.14242,20.8696 5.64607,4.66564 4.06443,4.97457 14.64424,-2.86037 10.03786,-7.43361 21.50201,-13.33169 31.96689,-16.44636 l 7,-2.08341 12.1875,-0.91499 11.8125,-0.16499 8,1.61917 8,1.61917 9,4.45832 c 20.47787,10.1441 34.83201,27.89197 40.50813,50.08539 L 332,426.31993 v 9.89263 c 0,27.8903 -8.24407,42.35062 -43.50397,76.30709 C 276.51391,524.05884 252.77912,547.225 235.75207,564 c -17.02706,16.775 -32.05696,31.27438 -33.23776,31.89674 -2.81168,1.48197 -5.16507,2.8476 -9.67217,1.78906 z m 16.1319,-57.9358 c 7.45938,-7.2875 27.53576,-26.8281 44.61417,-43.42356 l 31.05166,-30.17356 3.19645,-5.99717 c 4.19633,-7.87311 6.13623,-13.39094 7.16216,-20.37193 l 0.84007,-5.71623 -1.39221,-6.65405 -1.39221,-6.65406 -3.09744,-4.82694 c -4.27954,-6.66908 -10.02661,-11.59631 -17.83331,-15.28931 l -6.62338,-2.57073 -9,-0.8083 -8.60225,0.66646 -5.0442,1.67213 c -8.98896,2.97979 -17.11943,8.59023 -29.41696,20.51848 l -12.1739,11.4581 -4.62853,1.85655 -3.63416,0.64119 -4.70866,-0.78175 -3.55961,-1.44467 -11.18874,-10.72431 C 161.15003,409.24781 152.86654,403.25257 144.23554,399.9149 l -5.77973,-1.84233 -9.45581,-0.44725 -9.41161,0.14937 -5.83505,2.07282 -5.83505,2.51475 -5.51257,4.1581 -5.335806,5.61652 -3.534957,7.06596 -3.097457,7.00337 -0.4375,8.46041 0.375,8.3354 2.630394,7.85574 3.226364,7.13034 5.656212,7.39156 c 0.54678,0.71454 22.48428,22.36128 43.10593,41.79191 20.62164,19.43064 39.97164,37.68186 43,40.55828 3.02835,2.87641 5.93619,5.23891 6.46186,5.25 0.52567,0.0111 7.0589,-5.94235 14.51828,-13.22985 z m 384.36753,56.84129 c -31.70078,-6.06576 -53.69983,-24.73264 -63.50636,-53.88713 l -3.09595,-9.20416 -0.61963,-10 c -1.20165,-19.393 2.33194,-35.82248 10.86461,-50.51516 L 541.331,465.5 l 7.5845,-7.59609 7.5845,-7.59609 8,-4.67126 c 9.96736,-5.82002 16.51031,-8.32712 28,-10.72892 l 9,-1.88137 9,0.009 9,0.008 8.5,1.88912 c 33.49887,7.44509 56.63934,29.43509 64.16061,60.97077 l 2.05034,8.59683 -0.10948,11.20369 C 693.71396,555.3558 670.65995,585.54463 633.5,595.06025 l -8,2.04858 -12.5,0.42609 -12.5,0.42608 z m 25.54377,-35.65118 C 639.15366,556.26743 653,537.78183 653,515.39524 v -7.18457 l -2.00927,-6.50527 c -4.04096,-13.08308 -13.9255,-24.15843 -25.73864,-28.83942 L 619.5,470.5867 h -9 -9 l -5.84367,2.31355 c -15.70423,6.2174 -27.20655,21.9471 -28.40488,38.84438 -2.17747,30.70398 23.93324,55.58161 51.63389,49.19548 z M 398.77591,595.01979 C 382.78221,591.6475 366.41907,585.21465 362.75,580.8569 L 361,578.77843 V 560.471 c 0,-25.04315 -0.64041,-24.2733 13.27426,-15.95733 11.65015,6.96258 26.63011,12.85138 38.22574,15.02698 l 9,1.6886 9.55751,-0.45319 9.55751,-0.4532 5.44249,-2.50159 c 7.53737,-3.46449 11.82308,-7.36936 14.57562,-13.2804 l 2.34733,-5.04087 -0.0122,-5.5 -0.0122,-5.5 -1.84889,-4.07074 C 457.18943,515.80344 446.91414,510.04432 417.5,499.9882 c -11.55,-3.94872 -23.7,-8.58527 -27,-10.30345 l -6,-3.12395 -7.01898,-7.0304 -7.01897,-7.0304 -2.71524,-5.5 c -1.49337,-3.025 -3.62233,-9.05948 -4.73102,-13.40996 L 361,445.68007 l 0.0148,-9.09003 c 0.0524,-32.19082 24.29595,-58.29855 60.48522,-65.13599 l 9,-1.70042 13.5,0.57676 13.5,0.57676 8,2.00804 c 15.23728,3.82463 29.42142,10.5672 31.60775,15.02504 l 1.25542,2.55977 0.41577,15 c 0.22868,8.25 0.008,16.575 -0.49069,18.5 l -0.90646,3.5 -2.01266,0.29619 c -1.10696,0.16291 -4.90536,-1.45999 -8.44089,-3.60643 -8.92302,-5.41723 -19.60625,-9.95175 -29.10555,-12.35392 l -8.04844,-2.03528 -12.13713,0.37836 -12.13712,0.37835 -6.27692,2.87001 C 409.14891,418.03351 404,425.33268 404,435.00772 v 5.07196 l 1.92496,3.77322 c 4.63313,9.08169 12.70875,13.95194 39.07504,23.5654 8.525,3.10832 20.10327,7.91974 25.7295,10.69206 l 10.2295,5.04056 7.48342,6.9887 7.48342,6.98869 3.46807,6.93226 c 1.90744,3.81275 4.22433,10.33149 5.14864,14.48609 l 1.68057,7.55383 -0.43064,10.19975 -0.43064,10.19976 -2.6598,7.47743 c -7.79523,21.9145 -25.61346,36.14718 -51.90988,41.46411 L 443.08432,597 425.29216,596.92964 407.5,596.85928 Z m 316.91134,-1.8913 -0.69586,-1.8438 0.2543,-112.80341 c 0.0701,-37.44148 -0.24094,-76.3726 0.92865,-111.44773 0.006,-0.17648 0.0259,-0.46527 0.23238,-0.82513 0.41549,-0.2158 0.79243,-0.356 0.99007,-0.39324 4.04989,-0.7632 12.16406,-0.0571 18.49921,0.036 l 19.604,0.23427 1.60031,0.90208 0.89969,2.3947 v 110.08636 110.08637 l -1.20315,3.018 L 754.88659,594 h -18.82085 -18.82085 z m 78.99713,-3.7e-4 L 794,591.6 V 479.92244 368.69722 l 1.30413,-1.93248 2.03647,-1.26474 17.48656,0.25774 17.48657,0.25774 1.75238,0.77008 L 835,368.24489 V 479.92244 591.6 l -0.69177,1.48726 L 832.6,594 h -18.1 -18.1 z m 75.00739,0.0254 L 869,591.6 v -76.1 -75.70826 l 0.72491,-1.76852 1.5684,-1.05257 18.2517,0.0294 h 18.14501 l 2.46749,1.45374 0.84249,2.20369 v 75.47126 75.19001 L 910.01875,593.3 907.9125,594.0625 890,594 h -18.6 z m 6.91248,-182.88363 -5.51721,-4.05342 -3.552,-4.65519 -2.17346,-5.17213 -0.86158,-6.89423 0.43079,-6.89423 2.59565,-5.15316 3.45722,-4.72237 4.4628,-3.19875 5.0659,-2.59565 8.69764,-1.89734 7.49142,0.77358 4.57161,1.95087 c 6.33057,2.70147 12.35449,10.30145 13.42066,19.30363 l 0.035,5.35121 -1.21303,4.18553 c -1.01391,3.49845 -5.33384,9.36256 -10.26736,12.57259 l -5.23131,2.79455 -7.43079,1.39743 -7.08616,-0.15956 z"
         id="path4"
         sodipodi:nodetypes="sssscsscccsssscccccsscssssssscsscccsscccsscccccsscccccccccccccssssssscsscccsscccsscsscccssscsscccssssscssscccsscccssscccsscsscccsscsccssscccsscssscccsscccsscccscccscscccccccccccccccccccccccccccccccccccccccccccccccccccccccccsscsscccc" />
    </g>
  </g>
</svg>
